<svg width="16" height="20" viewBox="0 0 16 20" fill="none" xmlns="http://www.w3.org/2000/svg">
<path d="M10.7009 9.1986H12.3445C12.5713 9.1986 12.7554 9.01912 12.7554 8.79798V7.19554C12.7554 6.97441 12.5713 6.79492 12.3445 6.79492H10.7009C10.4741 6.79492 10.29 6.97441 10.29 7.19554V8.79798C10.29 9.01912 10.4741 9.1986 10.7009 9.1986ZM11.9336 7.59616V8.39736H11.1118V7.59616H11.9336Z" fill="#B2B2B2"/>
<path d="M4.1272 15.6087H5.77073C5.99754 15.6087 6.18162 15.4292 6.18162 15.2081V13.6057C6.18162 13.3846 5.99754 13.2051 5.77073 13.2051H4.1272C3.9004 13.2051 3.71631 13.3846 3.71631 13.6057V15.2081C3.71631 15.4293 3.9004 15.6087 4.1272 15.6087ZM4.53809 14.0063H5.35984V14.8075H4.53809V14.0063Z" fill="#B2B2B2"/>
<path d="M4.1272 5.99349H5.77073C5.99754 5.99349 6.18162 5.814 6.18162 5.59287V3.99046C6.18162 3.76933 5.99754 3.58984 5.77073 3.58984H4.1272C3.9004 3.58984 3.71631 3.76933 3.71631 3.99046V5.59291C3.71631 5.81404 3.9004 5.99349 4.1272 5.99349ZM4.53809 4.39108H5.35984V5.19229H4.53809V4.39108Z" fill="#B2B2B2"/>
<path d="M15.589 18.8127H14.3991V2.38779C14.3991 2.16665 14.215 1.98717 13.9882 1.98717H12.7556V0.785348C12.7556 0.56425 12.5715 0.384766 12.3447 0.384766H4.12715C3.90035 0.384766 3.71626 0.56425 3.71626 0.785385V1.98721H2.48362C2.25682 1.98721 2.07273 2.16669 2.07273 2.38783V18.8127H0.840091C0.613286 18.8127 0.429199 18.9922 0.429199 19.2133C0.429199 19.4345 0.613286 19.614 0.840091 19.614H5.77064C5.99745 19.614 6.18154 19.4345 6.18154 19.2133V17.2103H10.2903V19.2133C10.2903 19.4344 10.4744 19.6139 10.7012 19.6139H15.5891C15.8159 19.6139 16 19.4344 16 19.2133C15.9999 18.9922 15.8158 18.8127 15.589 18.8127ZM4.53804 1.18597H11.9339V1.98717H4.53804V1.18597ZM13.5774 18.8127H11.1121V16.8097C11.1121 16.5886 10.928 16.4091 10.7012 16.4091H5.77064C5.54384 16.4091 5.35975 16.5886 5.35975 16.8097V18.8127H2.89448V2.78841H13.5773V18.8127H13.5774Z" fill="#B2B2B2"/>
<path d="M7.41431 15.6087H9.05784C9.28464 15.6087 9.46873 15.4292 9.46873 15.2081V13.6057C9.46873 13.3846 9.28464 13.2051 9.05784 13.2051H7.41431C7.1875 13.2051 7.00342 13.3846 7.00342 13.6057V15.2081C7.00346 15.4293 7.1875 15.6087 7.41431 15.6087ZM7.8252 14.0063H8.64695V14.8075H7.8252V14.0063Z" fill="#B2B2B2"/>
<path d="M10.7009 5.99349H12.3445C12.5713 5.99349 12.7554 5.814 12.7554 5.59287V3.99046C12.7554 3.76933 12.5713 3.58984 12.3445 3.58984H10.7009C10.4741 3.58984 10.29 3.76933 10.29 3.99046V5.59291C10.29 5.81404 10.4741 5.99349 10.7009 5.99349ZM11.9336 4.39108V5.19229H11.1118V4.39108H11.9336Z" fill="#B2B2B2"/>
<path d="M4.1272 9.1986H5.77073C5.99754 9.1986 6.18162 9.01912 6.18162 8.79798V7.19554C6.18162 6.97441 5.99754 6.79492 5.77073 6.79492H4.1272C3.9004 6.79492 3.71631 6.97441 3.71631 7.19554V8.79798C3.71631 9.01912 3.9004 9.1986 4.1272 9.1986ZM4.53809 7.59616H5.35984V8.39736H4.53809V7.59616Z" fill="#B2B2B2"/>
<path d="M7.41431 12.4037H9.05784C9.28464 12.4037 9.46873 12.2242 9.46873 12.0031V10.4006C9.46873 10.1795 9.28464 10 9.05784 10H7.41431C7.1875 10 7.00342 10.1795 7.00342 10.4006V12.0031C7.00346 12.2242 7.1875 12.4037 7.41431 12.4037ZM7.8252 10.8012H8.64695V11.6024H7.8252V10.8012Z" fill="#B2B2B2"/>
<path d="M7.41431 5.99349H9.05784C9.28464 5.99349 9.46873 5.814 9.46873 5.59287V3.99046C9.46873 3.76933 9.28464 3.58984 9.05784 3.58984H7.41431C7.1875 3.58984 7.00342 3.76933 7.00342 3.99046V5.59291C7.00346 5.81404 7.1875 5.99349 7.41431 5.99349ZM7.8252 4.39108H8.64695V5.19229H7.8252V4.39108Z" fill="#B2B2B2"/>
<path d="M7.41431 9.1986H9.05784C9.28464 9.1986 9.46873 9.01912 9.46873 8.79798V7.19554C9.46873 6.97441 9.28464 6.79492 9.05784 6.79492H7.41431C7.1875 6.79492 7.00342 6.97441 7.00342 7.19554V8.79798C7.00346 9.01912 7.1875 9.1986 7.41431 9.1986ZM7.8252 7.59616H8.64695V8.39736H7.8252V7.59616Z" fill="#B2B2B2"/>
<path d="M10.7009 15.6087H12.3445C12.5713 15.6087 12.7554 15.4292 12.7554 15.2081V13.6057C12.7554 13.3846 12.5713 13.2051 12.3445 13.2051H10.7009C10.4741 13.2051 10.29 13.3846 10.29 13.6057V15.2081C10.29 15.4293 10.4741 15.6087 10.7009 15.6087ZM11.9336 14.0063V14.8075H11.1118V14.0063H11.9336V14.0063Z" fill="#B2B2B2"/>
<path d="M4.1272 12.4037H5.77073C5.99754 12.4037 6.18162 12.2242 6.18162 12.0031V10.4006C6.18162 10.1795 5.99754 10 5.77073 10H4.1272C3.9004 10 3.71631 10.1795 3.71631 10.4006V12.0031C3.71631 12.2242 3.9004 12.4037 4.1272 12.4037ZM4.53809 10.8012H5.35984V11.6024H4.53809V10.8012Z" fill="#B2B2B2"/>
<path d="M10.7009 12.4037H12.3445C12.5713 12.4037 12.7554 12.2242 12.7554 12.0031V10.4006C12.7554 10.1795 12.5713 10 12.3445 10H10.7009C10.4741 10 10.29 10.1795 10.29 10.4006V12.0031C10.29 12.2242 10.4741 12.4037 10.7009 12.4037ZM11.9336 10.8012V11.6024H11.1118V10.8012H11.9336V10.8012Z" fill="#B2B2B2"/>
</svg>
