<svg width="17" height="13" viewBox="0 0 17 13" fill="none" xmlns="http://www.w3.org/2000/svg">
<path d="M3.1665 0.166016H13.9998C14.6629 0.166016 15.2988 0.429408 15.7676 0.898249C16.2364 1.36709 16.4998 2.00297 16.4998 2.66602V10.166C16.4998 10.8291 16.2364 11.4649 15.7676 11.9338C15.2988 12.4026 14.6629 12.666 13.9998 12.666H3.1665C2.50346 12.666 1.86758 12.4026 1.39874 11.9338C0.929896 11.4649 0.666504 10.8291 0.666504 10.166V2.66602C0.666504 2.00297 0.929896 1.36709 1.39874 0.898249C1.86758 0.429408 2.50346 0.166016 3.1665 0.166016V0.166016ZM3.1665 0.999349C2.75984 0.999349 2.3865 1.14518 2.09734 1.38768L8.58317 5.59935L15.069 1.38768C14.7695 1.13636 14.3908 0.998836 13.9998 0.999349H3.1665ZM8.58317 6.59268L1.6115 2.06602C1.53758 2.25741 1.49972 2.46084 1.49984 2.66602V10.166C1.49984 10.608 1.67543 11.032 1.98799 11.3445C2.30055 11.6571 2.72448 11.8327 3.1665 11.8327H13.9998C14.4419 11.8327 14.8658 11.6571 15.1783 11.3445C15.4909 11.032 15.6665 10.608 15.6665 10.166V2.66602C15.6665 2.45435 15.6273 2.25185 15.5548 2.06602L8.58317 6.59185V6.59268Z" fill="#B2B2B2"/>
</svg>
