<svg width="21" height="21" viewBox="0 0 21 21" fill="none" xmlns="http://www.w3.org/2000/svg">
<path d="M12.8223 2.27145C12.7285 2.17768 12.6014 2.125 12.4688 2.125H4.59375C4.28709 2.125 3.993 2.24682 3.77616 2.46366C3.55932 2.6805 3.4375 2.97459 3.4375 3.28125V17.7188C3.4375 18.0254 3.55932 18.3195 3.77616 18.5363C3.993 18.7532 4.28709 18.875 4.59375 18.875H16.4062C16.7129 18.875 17.007 18.7532 17.2238 18.5363C17.4407 18.3195 17.5625 18.0254 17.5625 17.7188V7.21875C17.5625 7.08614 17.5098 6.95896 17.4161 6.8652L12.8223 2.27145Z" stroke="#B2B2B2" stroke-linecap="round" stroke-linejoin="round"/>
<mask id="path-2-outside-1_393_434" maskUnits="userSpaceOnUse" x="11.4688" y="1.625" width="7" height="7" fill="black">
<rect fill="white" x="11.4688" y="1.625" width="7" height="7"/>
<path d="M12.4688 2.625V7.21875H17.0625"/>
</mask>
<path d="M13.4688 2.625C13.4688 2.07272 13.021 1.625 12.4688 1.625C11.9165 1.625 11.4688 2.07272 11.4688 2.625H13.4688ZM12.4688 7.21875H11.4688C11.4688 7.77103 11.9165 8.21875 12.4688 8.21875V7.21875ZM17.0625 8.21875C17.6148 8.21875 18.0625 7.77103 18.0625 7.21875C18.0625 6.66647 17.6148 6.21875 17.0625 6.21875V8.21875ZM11.4688 2.625V7.21875H13.4688V2.625H11.4688ZM12.4688 8.21875H17.0625V6.21875H12.4688V8.21875Z" fill="#B2B2B2" mask="url(#path-2-outside-1_393_434)"/>
</svg>
