<svg width="25" height="25" viewBox="0 0 25 25" fill="none" xmlns="http://www.w3.org/2000/svg">
<path d="M12.5 21.875C17.6777 21.875 21.875 17.6777 21.875 12.5C21.875 7.32233 17.6777 3.125 12.5 3.125C7.32233 3.125 3.125 7.32233 3.125 12.5C3.125 17.6777 7.32233 21.875 12.5 21.875Z" stroke="#656565" stroke-width="1.5" stroke-miterlimit="10"/>
<path d="M3.66211 9.375H21.3379" stroke="#656565" stroke-width="1.5" stroke-linecap="round" stroke-linejoin="round"/>
<path d="M3.66211 15.625H21.3379" stroke="#656565" stroke-width="1.5" stroke-linecap="round" stroke-linejoin="round"/>
<path d="M12.5 21.6211C14.6574 21.6211 16.4062 17.5374 16.4062 12.5C16.4062 7.46256 14.6574 3.37891 12.5 3.37891C10.3426 3.37891 8.59375 7.46256 8.59375 12.5C8.59375 17.5374 10.3426 21.6211 12.5 21.6211Z" stroke="#656565" stroke-width="1.5" stroke-miterlimit="10"/>
</svg>
