<svg width="24" height="24" viewBox="0 0 24 24" fill="none" xmlns="http://www.w3.org/2000/svg">
<path d="M11.9998 20.3334C7.39734 20.3334 3.6665 16.6026 3.6665 12.0001C3.6665 7.39758 7.39734 3.66675 11.9998 3.66675C16.6023 3.66675 20.3332 7.39758 20.3332 12.0001C20.3332 16.6026 16.6023 20.3334 11.9998 20.3334ZM11.9998 18.6667C13.7679 18.6667 15.4636 17.9644 16.7139 16.7141C17.9641 15.4639 18.6665 13.7682 18.6665 12.0001C18.6665 10.232 17.9641 8.53628 16.7139 7.28604C15.4636 6.03579 13.7679 5.33341 11.9998 5.33341C10.2317 5.33341 8.53604 6.03579 7.28579 7.28604C6.03555 8.53628 5.33317 10.232 5.33317 12.0001C5.33317 13.7682 6.03555 15.4639 7.28579 16.7141C8.53604 17.9644 10.2317 18.6667 11.9998 18.6667ZM11.1665 7.83342H12.8332V9.50008H11.1665V7.83342ZM11.1665 11.1667H12.8332V16.1667H11.1665V11.1667Z" fill="white"/>
</svg>
