<svg width="19" height="18" viewBox="0 0 19 18" fill="none" xmlns="http://www.w3.org/2000/svg">
<path d="M9.75357 4.50778C9.1636 4.50686 8.57926 4.62245 8.03407 4.84791C7.48888 5.07338 6.99359 5.40429 6.5766 5.82164C6.15961 6.239 5.82915 6.73459 5.60417 7.27998C5.37919 7.82537 5.26412 8.40981 5.26557 8.99978C5.26517 9.58908 5.38102 10.1727 5.60647 10.7171C5.83192 11.2616 6.16256 11.7562 6.57944 12.1727C6.99632 12.5893 7.49126 12.9194 8.03592 13.1444C8.58059 13.3694 9.16428 13.4847 9.75357 13.4838C10.3429 13.4847 10.9266 13.3694 11.4712 13.1444C12.0159 12.9194 12.5108 12.5893 12.9277 12.1727C13.3446 11.7562 13.6752 11.2616 13.9007 10.7171C14.1261 10.1727 14.242 9.58908 14.2416 8.99978C14.243 8.40981 14.128 7.82537 13.903 7.27998C13.678 6.73459 13.3475 6.239 12.9305 5.82164C12.5136 5.40429 12.0183 5.07338 11.4731 4.84791C10.9279 4.62245 10.3435 4.50686 9.75357 4.50778ZM9.75357 11.9138C8.98077 11.9125 8.23993 11.6052 7.6931 11.0591C7.14627 10.513 6.83795 9.77258 6.83557 8.99978C6.83636 8.22612 7.14405 7.48438 7.69111 6.93732C8.23817 6.39026 8.97991 6.08258 9.75357 6.08178C10.5272 6.08258 11.269 6.39026 11.816 6.93732C12.3631 7.48438 12.6708 8.22612 12.6716 8.99978C12.6692 9.77258 12.3609 10.513 11.814 11.0591C11.2672 11.6052 10.5264 11.9125 9.75357 11.9138ZM15.4726 4.32378C15.4726 4.0461 15.3623 3.77979 15.1659 3.58344C14.9696 3.38709 14.7033 3.27678 14.4256 3.27678C14.2881 3.27678 14.1519 3.30386 14.0249 3.35648C13.8979 3.4091 13.7825 3.48622 13.6852 3.58344C13.588 3.68066 13.5109 3.79608 13.4583 3.92311C13.4057 4.05014 13.3786 4.18629 13.3786 4.32378C13.3782 4.46139 13.405 4.59771 13.4575 4.72492C13.5099 4.85213 13.587 4.9677 13.6843 5.06501C13.7816 5.16231 13.8972 5.23941 14.0244 5.29189C14.1516 5.34437 14.288 5.37118 14.4256 5.37078C14.5632 5.37118 14.6995 5.34437 14.8267 5.29189C14.9539 5.23941 15.0695 5.16231 15.1668 5.06501C15.2641 4.9677 15.3412 4.85213 15.3937 4.72492C15.4462 4.59771 15.473 4.46139 15.4726 4.32378ZM18.4456 5.38678C18.4744 4.02584 17.9665 2.70822 17.0316 1.71878C16.0407 0.784957 14.7239 0.275684 13.3626 0.299781C11.9176 0.217781 7.58557 0.217781 6.13957 0.299781C4.77967 0.272666 3.46315 0.778746 2.47157 1.70978C1.53757 2.70173 1.0302 4.02062 1.05857 5.38278C0.97657 6.82778 0.97657 11.1598 1.05857 12.6058C1.03 13.9664 1.53792 15.2836 2.47257 16.2728C3.46416 17.2044 4.78024 17.7121 6.14057 17.6878C7.58557 17.7698 11.9176 17.7698 13.3636 17.6878C14.7243 17.7161 16.0415 17.2078 17.0306 16.2728C17.9623 15.2814 18.4698 13.9651 18.4446 12.6048C18.5266 11.1598 18.5266 6.83178 18.4446 5.38678H18.4456ZM16.5786 14.1568C16.4298 14.5333 16.2052 14.8752 15.9188 15.1612C15.6324 15.4473 15.2902 15.6715 14.9136 15.8198C13.7616 16.2768 11.0266 16.1718 9.75357 16.1718C8.48057 16.1718 5.74157 16.2718 4.59357 15.8198C4.21699 15.6712 3.87497 15.4469 3.58872 15.1606C3.30247 14.8744 3.07811 14.5324 2.92957 14.1558C2.47257 12.9998 2.57757 10.2698 2.57757 8.99978C2.57757 7.72978 2.47757 4.98778 2.92957 3.83978C3.07811 3.46321 3.30247 3.12118 3.58872 2.83493C3.87497 2.54868 4.21699 2.32432 4.59357 2.17578C5.74557 1.71878 8.48057 1.82378 9.75357 1.82378C11.0266 1.82378 13.7656 1.72378 14.9136 2.17578C15.2901 2.32432 15.6322 2.54868 15.9184 2.83493C16.2047 3.12118 16.429 3.46321 16.5776 3.83978C17.0346 4.99178 16.9296 7.72678 16.9296 8.99978C16.9296 10.2728 17.0346 13.0078 16.5776 14.1558L16.5786 14.1568Z" fill="white"/>
</svg>
