<svg width="16" height="18" viewBox="0 0 16 18" fill="none" xmlns="http://www.w3.org/2000/svg">
<path fill-rule="evenodd" clip-rule="evenodd" d="M7.99998 14.125C8.34373 14.125 8.62499 13.8437 8.62499 13.5V11.5C8.62499 11.1563 8.34374 10.875 7.99999 10.875C7.65624 10.875 7.37499 11.1563 7.37499 11.5V13.5C7.37499 13.8438 7.65624 14.125 8 14.125L7.99998 14.125ZM15 9.50003C15 8.67191 14.3281 8.00003 13.5 8.00003H13V6.0469C13 3.28439 10.7781 1.0094 8.01563 1.00003C5.25 0.990659 3 3.23752 3 6.00003V8.00003H2.5C1.67188 8.00003 1 8.67191 1 9.50003V15.5C1 16.3282 1.67188 17 2.5 17H13.5C14.3281 17 15 16.3282 15 15.5V9.50003ZM3.99998 7.99991V5.9999C3.99998 3.79366 5.79374 1.9999 7.99998 1.9999C10.2062 1.9999 12 3.79366 12 5.9999V7.99991H3.99998ZM14 15.4999C14 15.7749 13.775 15.9999 13.5 15.9999H2.49999C2.22499 15.9999 1.99999 15.7749 1.99999 15.4999V9.4999C1.99999 9.22491 2.22499 8.9999 2.49999 8.9999H13.5C13.775 8.9999 14 9.22491 14 9.4999V15.4999Z" fill="white"/>
<path d="M7.99998 14.125V13.725H7.0343L7.71714 14.4078L7.99998 14.125ZM8 14.125V14.525H8.96568L8.28284 13.8422L8 14.125ZM13 8.00003H12.6V8.40003H13V8.00003ZM8.01563 1.00003L8.01698 0.600031H8.01698L8.01563 1.00003ZM3 8.00003V8.40003H3.4V8.00003H3ZM3.99998 7.99991H3.59998V8.3999H3.99998V7.99991ZM12 7.99991V8.3999H12.4V7.99991H12ZM7.99998 14.525C8.56464 14.525 9.02499 14.0647 9.02499 13.5H8.22499C8.22499 13.6228 8.12282 13.725 7.99998 13.725V14.525ZM9.02499 13.5V11.5H8.22499V13.5H9.02499ZM9.02499 11.5C9.02499 10.9353 8.56465 10.475 7.99999 10.475V11.275C8.12283 11.275 8.22499 11.3772 8.22499 11.5H9.02499ZM7.99999 10.475C7.43532 10.475 6.97499 10.9353 6.97499 11.5H7.77499C7.77499 11.3772 7.87716 11.275 7.99999 11.275V10.475ZM6.97499 11.5V13.5H7.77499V11.5H6.97499ZM6.97499 13.5C6.97499 14.0647 7.43532 14.525 8 14.525V13.725C7.87716 13.725 7.77499 13.6228 7.77499 13.5H6.97499ZM8.28284 13.8422L8.28283 13.8422L7.71714 14.4078L7.71715 14.4078L8.28284 13.8422ZM15.4 9.50003C15.4 8.45099 14.549 7.60003 13.5 7.60003V8.40003C14.1072 8.40003 14.6 8.89282 14.6 9.50003H15.4ZM13.5 7.60003H13V8.40003H13.5V7.60003ZM13.4 8.00003V6.0469H12.6V8.00003H13.4ZM13.4 6.0469C13.4 3.06874 11.0046 0.610166 8.01698 0.600031L8.01427 1.40003C10.5517 1.40863 12.6 3.50005 12.6 6.0469H13.4ZM8.01698 0.600031C5.02961 0.589909 2.6 3.01638 2.6 6.00003H3.4C3.4 3.45866 5.47039 1.39141 8.01427 1.40003L8.01698 0.600031ZM2.6 6.00003V8.00003H3.4V6.00003H2.6ZM3 7.60003H2.5V8.40003H3V7.60003ZM2.5 7.60003C1.45096 7.60003 0.6 8.45099 0.6 9.50003H1.4C1.4 8.89282 1.89279 8.40003 2.5 8.40003V7.60003ZM0.6 9.50003V15.5H1.4V9.50003H0.6ZM0.6 15.5C0.6 16.5491 1.45096 17.4 2.5 17.4V16.6C1.89279 16.6 1.4 16.1072 1.4 15.5H0.6ZM2.5 17.4H13.5V16.6H2.5V17.4ZM13.5 17.4C14.549 17.4 15.4 16.5491 15.4 15.5H14.6C14.6 16.1072 14.1072 16.6 13.5 16.6V17.4ZM15.4 15.5V9.50003H14.6V15.5H15.4ZM4.39998 7.99991V5.9999H3.59998V7.99991H4.39998ZM4.39998 5.9999C4.39998 4.01458 6.01466 2.3999 7.99998 2.3999V1.5999C5.57283 1.5999 3.59998 3.57275 3.59998 5.9999H4.39998ZM7.99998 2.3999C9.98531 2.3999 11.6 4.01458 11.6 5.9999H12.4C12.4 3.57275 10.4271 1.5999 7.99998 1.5999V2.3999ZM11.6 5.9999V7.99991H12.4V5.9999H11.6ZM12 7.59991H3.99998V8.3999H12V7.59991ZM13.6 15.4999C13.6 15.554 13.5541 15.5999 13.5 15.5999V16.3999C13.9959 16.3999 14.4 15.9958 14.4 15.4999H13.6ZM13.5 15.5999H2.49999V16.3999H13.5V15.5999ZM2.49999 15.5999C2.44591 15.5999 2.39999 15.554 2.39999 15.4999H1.59999C1.59999 15.9958 2.00408 16.3999 2.49999 16.3999V15.5999ZM2.39999 15.4999V9.4999H1.59999V15.4999H2.39999ZM2.39999 9.4999C2.39999 9.44583 2.44591 9.3999 2.49999 9.3999V8.5999C2.00408 8.5999 1.59999 9.004 1.59999 9.4999H2.39999ZM2.49999 9.3999H13.5V8.5999H2.49999V9.3999ZM13.5 9.3999C13.5541 9.3999 13.6 9.44583 13.6 9.4999H14.4C14.4 9.004 13.9959 8.5999 13.5 8.5999V9.3999ZM13.6 9.4999V15.4999H14.4V9.4999H13.6Z" fill="white"/>
</svg>
