<svg width="15" height="18" viewBox="0 0 15 18" fill="none" xmlns="http://www.w3.org/2000/svg">
<path fill-rule="evenodd" clip-rule="evenodd" d="M7.49996 14.0622C7.86826 14.0622 8.1696 13.7609 8.1696 13.3926V11.2497C8.1696 10.8814 7.86827 10.5801 7.49996 10.5801C7.13166 10.5801 6.83032 10.8814 6.83032 11.2497V13.3926C6.83032 13.7609 7.13166 14.0622 7.49997 14.0622L7.49996 14.0622ZM15 9.10717C15 8.2199 14.2801 7.50003 13.3929 7.50003H12.8571V5.4074C12.8571 2.44756 10.4766 0.0100713 7.51674 3.12906e-05C4.55357 -0.0100087 2.14286 2.39734 2.14286 5.35717V7.50003H1.60714C0.719869 7.50003 0 8.2199 0 9.10717V15.5357C0 16.423 0.719869 17.1429 1.60714 17.1429H13.3929C14.2801 17.1429 15 16.423 15 15.5357V9.10717ZM3.21436 7.50084V5.35798C3.21436 2.99415 5.13624 1.07227 7.50007 1.07227C9.8639 1.07227 11.7858 2.99415 11.7858 5.35798V7.50084H3.21436ZM13.9287 15.5366C13.9287 15.8312 13.6876 16.0723 13.393 16.0723H1.60725C1.31261 16.0723 1.07153 15.8312 1.07153 15.5366V9.10798C1.07153 8.81335 1.31261 8.57227 1.60725 8.57227H13.393C13.6876 8.57227 13.9287 8.81335 13.9287 9.10798V15.5366Z" fill="#B2B2B2"/>
</svg>
