<svg width="24" height="24" viewBox="0 0 24 24" fill="none" xmlns="http://www.w3.org/2000/svg">
<path d="M15.3332 18.6667V5.33341H5.33317V17.8334C5.33317 18.0544 5.42097 18.2664 5.57725 18.4227C5.73353 18.579 5.94549 18.6667 6.1665 18.6667H15.3332ZM17.8332 20.3334H6.1665C5.50346 20.3334 4.86758 20.07 4.39874 19.6012C3.9299 19.1323 3.6665 18.4965 3.6665 17.8334V4.50008C3.6665 4.27907 3.7543 4.06711 3.91058 3.91083C4.06686 3.75455 4.27882 3.66675 4.49984 3.66675H16.1665C16.3875 3.66675 16.5995 3.75455 16.7558 3.91083C16.912 4.06711 16.9998 4.27907 16.9998 4.50008V10.3334H20.3332V17.8334C20.3332 18.4965 20.0698 19.1323 19.6009 19.6012C19.1321 20.07 18.4962 20.3334 17.8332 20.3334ZM16.9998 12.0001V17.8334C16.9998 18.0544 17.0876 18.2664 17.2439 18.4227C17.4002 18.579 17.6122 18.6667 17.8332 18.6667C18.0542 18.6667 18.2661 18.579 18.4224 18.4227C18.5787 18.2664 18.6665 18.0544 18.6665 17.8334V12.0001H16.9998ZM6.99984 7.00008H11.9998V12.0001H6.99984V7.00008ZM8.6665 8.66675V10.3334H10.3332V8.66675H8.6665ZM6.99984 12.8334H13.6665V14.5001H6.99984V12.8334ZM6.99984 15.3334H13.6665V17.0001H6.99984V15.3334Z" fill="white"/>
</svg>
