<svg width="24" height="24" viewBox="0 0 24 24" fill="none" xmlns="http://www.w3.org/2000/svg">
<path d="M7 3.66602L4.5 6.99935V18.666C4.5 19.108 4.67559 19.532 4.98816 19.8445C5.30072 20.1571 5.72464 20.3327 6.16667 20.3327H17.8333C18.2754 20.3327 18.6993 20.1571 19.0118 19.8445C19.3244 19.532 19.5 19.108 19.5 18.666V6.99935L17 3.66602H7Z" stroke="#656565" stroke-width="1.5" stroke-linecap="round" stroke-linejoin="round"/>
<path d="M4.5 7H19.5" stroke="#656565" stroke-width="1.5" stroke-linecap="round" stroke-linejoin="round"/>
<path d="M15.3332 10.334C15.3332 11.218 14.982 12.0659 14.3569 12.691C13.7317 13.3161 12.8839 13.6673 11.9998 13.6673C11.1158 13.6673 10.2679 13.3161 9.64281 12.691C9.01769 12.0659 8.6665 11.218 8.6665 10.334" stroke="#656565" stroke-width="1.5" stroke-linecap="round" stroke-linejoin="round"/>
</svg>
