<svg width="20" height="20" viewBox="0 0 12 12" fill="none" xmlns="http://www.w3.org/2000/svg">
<path d="M4.34531 10.1259H2.25C2.15055 10.1259 2.05516 10.0864 1.98484 10.0161C1.91451 9.94577 1.875 9.85039 1.875 9.75094V7.65562C1.87483 7.60693 1.88427 7.55868 1.90277 7.51364C1.92127 7.46859 1.94847 7.42764 1.98281 7.39312L7.60782 1.76812C7.64271 1.73269 7.6843 1.70455 7.73017 1.68535C7.77604 1.66614 7.82527 1.65625 7.875 1.65625C7.92473 1.65625 7.97396 1.66614 8.01983 1.68535C8.0657 1.70455 8.1073 1.73269 8.14219 1.76812L10.2328 3.85875C10.2682 3.89364 10.2964 3.93523 10.3156 3.9811C10.3348 4.02697 10.3447 4.07621 10.3447 4.12594C10.3447 4.17566 10.3348 4.2249 10.3156 4.27077C10.2964 4.31664 10.2682 4.35823 10.2328 4.39312L4.60782 10.0181C4.5733 10.0525 4.53235 10.0797 4.4873 10.0982C4.44226 10.1167 4.39401 10.1261 4.34531 10.1259V10.1259Z" stroke="#FF9B30" stroke-width="0.75" stroke-linecap="round" stroke-linejoin="round"/>
<path d="M6.375 3L9 5.625" stroke="#FF9B30" stroke-width="0.75" stroke-linecap="round" stroke-linejoin="round"/>
</svg>
