<svg width="14" height="22" viewBox="0 0 14 22" fill="none" xmlns="http://www.w3.org/2000/svg">
<path d="M5.41533 16.2992C5.24294 16.2992 5.07761 16.3677 4.95571 16.4896C4.83381 16.6115 4.76533 16.7768 4.76533 16.9492C4.76533 17.1216 4.83381 17.2869 4.95571 17.4088C5.07761 17.5307 5.24294 17.5992 5.41533 17.5992H8.01533C8.18772 17.5992 8.35305 17.5307 8.47495 17.4088C8.59685 17.2869 8.66533 17.1216 8.66533 16.9492C8.66533 16.7768 8.59685 16.6115 8.47495 16.4896C8.35305 16.3677 8.18772 16.2992 8.01533 16.2992H5.41533ZM2.81533 0.699219C2.12577 0.699219 1.46445 0.973146 0.976854 1.46074C0.48926 1.94834 0.215332 2.60966 0.215332 3.29922V18.8992C0.215332 19.5888 0.48926 20.2501 0.976854 20.7377C1.46445 21.2253 2.12577 21.4992 2.81533 21.4992H10.6153C11.3049 21.4992 11.9662 21.2253 12.4538 20.7377C12.9414 20.2501 13.2153 19.5888 13.2153 18.8992V3.29922C13.2153 2.60966 12.9414 1.94834 12.4538 1.46074C11.9662 0.973146 11.3049 0.699219 10.6153 0.699219H2.81533ZM1.51533 3.29922C1.51533 2.95444 1.6523 2.62378 1.89609 2.37998C2.13989 2.13618 2.47055 1.99922 2.81533 1.99922H10.6153C10.9601 1.99922 11.2908 2.13618 11.5346 2.37998C11.7784 2.62378 11.9153 2.95444 11.9153 3.29922V18.8992C11.9153 19.244 11.7784 19.5747 11.5346 19.8185C11.2908 20.0623 10.9601 20.1992 10.6153 20.1992H2.81533C2.47055 20.1992 2.13989 20.0623 1.89609 19.8185C1.6523 19.5747 1.51533 19.244 1.51533 18.8992V3.29922Z" fill="#B2B2B2"/>
</svg>
