<svg width="24" height="24" viewBox="0 0 24 24" fill="none" xmlns="http://www.w3.org/2000/svg">
<path d="M9.805 10.9017C10.5869 12.2754 11.7246 13.4131 13.0983 14.195L13.835 13.1633C13.9535 12.9974 14.1286 12.8807 14.3273 12.8353C14.526 12.7898 14.7345 12.8188 14.9133 12.9167C16.0919 13.5608 17.3935 13.9481 18.7325 14.0533C18.9415 14.0699 19.1365 14.1646 19.2788 14.3186C19.421 14.4726 19.5 14.6745 19.5 14.8842V18.6025C19.5 18.8088 19.4235 19.0078 19.2853 19.161C19.1471 19.3142 18.9569 19.4106 18.7517 19.4317C18.31 19.4775 17.865 19.5 17.4167 19.5C10.2833 19.5 4.5 13.7167 4.5 6.58333C4.5 6.135 4.5225 5.69 4.56833 5.24833C4.58938 5.04308 4.68582 4.85293 4.83899 4.71469C4.99216 4.57646 5.19117 4.49996 5.3975 4.5H9.11583C9.32547 4.49997 9.52741 4.57896 9.6814 4.72121C9.83539 4.86346 9.93011 5.05852 9.94667 5.2675C10.0519 6.60649 10.4392 7.90807 11.0833 9.08667C11.1812 9.26547 11.2102 9.47395 11.1647 9.67266C11.1193 9.87137 11.0026 10.0465 10.8367 10.165L9.805 10.9017ZM7.70333 10.3542L9.28667 9.22333C8.83732 8.25341 8.52946 7.22403 8.3725 6.16667H6.175C6.17 6.305 6.1675 6.44417 6.1675 6.58333C6.16667 12.7967 11.2033 17.8333 17.4167 17.8333C17.5558 17.8333 17.695 17.8308 17.8333 17.825V15.6275C16.776 15.4705 15.7466 15.1627 14.7767 14.7133L13.6458 16.2967C13.1906 16.1198 12.7483 15.9109 12.3225 15.6717L12.2742 15.6442C10.6396 14.7139 9.28607 13.3604 8.35583 11.7258L8.32833 11.6775C8.08909 11.2517 7.88024 10.8094 7.70333 10.3542Z" fill="white"/>
</svg>
