<svg width="26" height="26" viewBox="0 0 26 26" fill="none" xmlns="http://www.w3.org/2000/svg">
<path d="M19.6928 19.6921H8.08477L5.24885 4.09958C5.21567 3.91285 5.11826 3.74359 4.97348 3.62108C4.8287 3.49857 4.64565 3.43053 4.45601 3.42871H2.61621" stroke="white" stroke-width="2.16845" stroke-linecap="round" stroke-linejoin="round"/>
<path d="M9.12179 23.7582C10.2445 23.7582 11.1547 22.8481 11.1547 21.7253C11.1547 20.6026 10.2445 19.6924 9.12179 19.6924C7.99904 19.6924 7.08887 20.6026 7.08887 21.7253C7.08887 22.8481 7.99904 23.7582 9.12179 23.7582Z" stroke="white" stroke-width="2.16845" stroke-linecap="round" stroke-linejoin="round"/>
<path d="M19.6911 23.7582C20.8139 23.7582 21.724 22.8481 21.724 21.7253C21.724 20.6026 20.8139 19.6924 19.6911 19.6924C18.5684 19.6924 17.6582 20.6026 17.6582 21.7253C17.6582 22.8481 18.5684 23.7582 19.6911 23.7582Z" stroke="white" stroke-width="2.16845" stroke-linecap="round" stroke-linejoin="round"/>
<path d="M7.34301 15.6258H20.1098C20.4899 15.627 20.8583 15.4941 21.1501 15.2506C21.442 15.0071 21.6387 14.6684 21.7056 14.2943L22.9457 7.49414H5.86914" stroke="white" stroke-width="2.16845" stroke-linecap="round" stroke-linejoin="round"/>
</svg>
