<svg width="20" height="18" viewBox="0 0 20 18" fill="none" xmlns="http://www.w3.org/2000/svg">
<path d="M17.944 4.92594C18.7436 4.34028 19.4387 3.62389 20 2.80694C19.2493 3.13471 18.4539 3.3484 17.64 3.44094C18.4949 2.93206 19.1349 2.12889 19.44 1.18194C18.6372 1.65997 17.7574 1.99495 16.84 2.17194C16.4563 1.76224 15.9924 1.43592 15.4771 1.21329C14.9619 0.990671 14.4063 0.876518 13.845 0.877943C12.7576 0.877943 11.7148 1.30991 10.9459 2.0788C10.177 2.8477 9.745 3.89055 9.745 4.97794C9.74622 5.29353 9.77973 5.60817 9.845 5.91694C8.21543 5.8331 6.62164 5.4079 5.16686 4.66888C3.71208 3.92986 2.42875 2.89351 1.4 1.62694C1.03034 2.25512 0.836239 2.97107 0.838 3.69994C0.838535 4.37462 1.00556 5.03875 1.32426 5.63341C1.64296 6.22808 2.10349 6.73491 2.665 7.10894C2.01499 7.08403 1.38007 6.90585 0.812 6.58894V6.63994C0.811258 7.58693 1.13835 8.50497 1.73772 9.23814C2.33709 9.97131 3.17177 10.4744 4.1 10.6619C3.74723 10.7532 3.38437 10.7995 3.02 10.7999C2.76078 10.7984 2.50205 10.7773 2.246 10.7369C2.50887 11.5513 3.01961 12.2632 3.70683 12.7731C4.39405 13.283 5.22341 13.5654 6.079 13.5809C4.62775 14.7202 2.83502 15.3374 0.99 15.3329C0.659288 15.3353 0.328724 15.3182 0 15.2819C1.87697 16.4887 4.06256 17.1277 6.294 17.1219C7.82858 17.1326 9.34997 16.8382 10.7698 16.2558C12.1896 15.6735 13.4796 14.8148 14.5647 13.7296C15.6498 12.6445 16.5085 11.3546 17.0909 9.93473C17.6732 8.51491 17.9676 6.99352 17.957 5.45894C17.957 5.28194 17.957 5.09994 17.944 4.92594Z" fill="white"/>
</svg>
