<svg width="24" height="24" viewBox="0 0 24 24" fill="none" xmlns="http://www.w3.org/2000/svg">
<path fill-rule="evenodd" clip-rule="evenodd" d="M9.00028 12.0003C11.2097 12.0003 13.0004 10.2096 13.0004 8.00016C13.0004 5.79069 11.2097 4 9.00028 4C6.79081 4 5.00012 5.79069 5.00012 8.00016C5.00012 10.2096 6.79081 12.0003 9.00028 12.0003ZM9.00028 5.00004C10.6535 5.00004 12.0004 6.34696 12.0004 8.00016C12.0004 9.65336 10.6535 11.0003 9.00028 11.0003C7.34708 11.0003 6.00016 9.65336 6.00016 8.00016C6.00016 6.34696 7.34708 5.00004 9.00028 5.00004ZM21.7071 11.3784L20.6227 10.294C20.4258 10.0971 20.1695 10.0002 19.9101 10.0002C19.6539 10.0002 19.3945 10.0971 19.1976 10.294L12.2442 17.2505L12.0067 19.3819C11.9692 19.7163 12.2317 20.0006 12.5599 20.0006C12.5817 20.0006 12.6005 20.0006 12.6224 19.9975L14.7537 19.76L21.7071 12.8066C22.0977 12.4097 22.0977 11.7722 21.7071 11.3784V11.3784ZM14.2911 18.8037L13.0598 18.9444L13.1973 17.7099L18.1006 12.8066L19.1944 13.9004L14.2911 18.8037ZM19.9007 13.1941L18.8069 12.1003L19.907 11.0003H19.9101L19.9163 11.0034L21.0008 12.0972L19.9007 13.1941ZM6.20018 14.0004C6.81269 14.0004 7.42209 14.5004 9.00028 14.5004C10.5754 14.5004 11.1879 14.0004 11.8004 14.0004C12.4473 14.0004 13.0473 14.1973 13.5504 14.5286L14.263 13.816C13.5692 13.3098 12.7223 13.0035 11.8004 13.0035C10.9035 13.0035 10.4722 13.5035 9.00028 13.5035C7.52836 13.5035 7.10021 13.0035 6.20018 13.0035C3.88133 13.0004 2 14.8817 2 17.2006V18.5006C2 19.3287 2.6719 20.0007 3.50006 20.0007H11.1097C11.0222 19.7694 10.9816 19.5194 11.0097 19.2694L11.041 19.0006H3.50006C3.22506 19.0006 3.00004 18.7756 3.00004 18.5006V17.2006C3.00004 15.4349 4.43449 14.0004 6.20018 14.0004V14.0004Z" fill="white"/>
<path d="M21.7071 11.3784L21.4242 11.6612L22.1071 12.3441V11.3784H21.7071ZM20.6227 10.294L20.9055 10.0112L20.6227 10.294ZM19.1976 10.294L18.9147 10.0112L18.9147 10.0112L19.1976 10.294ZM12.2442 17.2505L11.9613 16.9677L11.8622 17.0669L11.8467 17.2062L12.2442 17.2505ZM12.0067 19.3819L12.4042 19.4265L12.4042 19.4262L12.0067 19.3819ZM12.6224 19.9975L12.578 19.5998L12.566 19.6015L12.6224 19.9975ZM14.7537 19.76L14.798 20.1575L14.9374 20.142L15.0365 20.0428L14.7537 19.76ZM21.7071 12.8066L21.9899 13.0894L21.9922 13.0872L21.7071 12.8066ZM21.7071 11.3784L21.991 11.0967L21.3071 10.4072V11.3784H21.7071ZM14.2911 18.8037L14.3365 19.2011L14.4752 19.1853L14.5739 19.0866L14.2911 18.8037ZM13.0598 18.9444L12.6623 18.9001L12.6067 19.3987L13.1052 19.3418L13.0598 18.9444ZM13.1973 17.7099L12.9145 17.4271L12.8153 17.5263L12.7998 17.6657L13.1973 17.7099ZM18.1006 12.8066L18.3835 12.5238L18.1006 12.2409L17.8178 12.5238L18.1006 12.8066ZM19.1944 13.9004L19.4773 14.1832L19.7601 13.9004L19.4773 13.6175L19.1944 13.9004ZM19.9007 13.1941L19.6179 13.477L19.9003 13.7594L20.1831 13.4774L19.9007 13.1941ZM18.8069 12.1003L18.5241 11.8175L18.2412 12.1003L18.5241 12.3832L18.8069 12.1003ZM19.907 11.0003V10.6003H19.7413L19.6241 10.7174L19.907 11.0003ZM19.9101 11.0003L20.0884 10.6422L20.0041 10.6003H19.9101V11.0003ZM19.9163 11.0034L20.2004 10.7218L20.1538 10.6748L20.0946 10.6453L19.9163 11.0034ZM21.0008 12.0972L21.2832 12.3804L21.5656 12.0988L21.2848 11.8156L21.0008 12.0972ZM6.20018 14.0004V13.6004H5.80018V14.0004H6.20018ZM13.5504 14.5286L13.3305 14.8627L13.6028 15.0419L13.8333 14.8114L13.5504 14.5286ZM14.263 13.816L14.5458 14.0989L14.8763 13.7684L14.4988 13.4929L14.263 13.816ZM6.20018 13.0035L6.19964 13.4035H6.20018V13.0035ZM11.1097 20.0007V20.4007H11.6887L11.4839 19.8591L11.1097 20.0007ZM11.0097 19.2694L10.6124 19.2232L10.6122 19.2247L11.0097 19.2694ZM11.041 19.0006L11.4383 19.0468L11.4902 18.6006H11.041V19.0006ZM6.20018 14.0004V14.4004H6.60018V14.0004H6.20018ZM9.00028 12.4003C11.4307 12.4003 13.4004 10.4305 13.4004 8.00016H12.6004C12.6004 9.98871 10.9888 11.6003 9.00028 11.6003V12.4003ZM13.4004 8.00016C13.4004 5.56978 11.4307 3.6 9.00028 3.6V4.4C10.9888 4.4 12.6004 6.0116 12.6004 8.00016H13.4004ZM9.00028 3.6C6.56989 3.6 4.60012 5.56978 4.60012 8.00016H5.40012C5.40012 6.0116 7.01172 4.4 9.00028 4.4V3.6ZM4.60012 8.00016C4.60012 10.4305 6.56989 12.4003 9.00028 12.4003V11.6003C7.01172 11.6003 5.40012 9.98871 5.40012 8.00016H4.60012ZM9.00028 5.40004C10.4326 5.40004 11.6004 6.56787 11.6004 8.00016H12.4004C12.4004 6.12604 10.8744 4.60004 9.00028 4.60004V5.40004ZM11.6004 8.00016C11.6004 9.43245 10.4326 10.6003 9.00028 10.6003V11.4003C10.8744 11.4003 12.4004 9.87427 12.4004 8.00016H11.6004ZM9.00028 10.6003C7.56799 10.6003 6.40016 9.43245 6.40016 8.00016H5.60016C5.60016 9.87427 7.12616 11.4003 9.00028 11.4003V10.6003ZM6.40016 8.00016C6.40016 6.56787 7.56799 5.40004 9.00028 5.40004V4.60004C7.12616 4.60004 5.60016 6.12604 5.60016 8.00016H6.40016ZM21.9899 11.0956L20.9055 10.0112L20.3398 10.5769L21.4242 11.6612L21.9899 11.0956ZM20.9055 10.0112C20.6298 9.73544 20.2701 9.60024 19.9101 9.60024V10.4002C20.0689 10.4002 20.2217 10.4588 20.3398 10.5769L20.9055 10.0112ZM19.9101 9.60024C19.554 9.60024 19.1909 9.73499 18.9147 10.0112L19.4805 10.5768C19.5981 10.4592 19.7538 10.4002 19.9101 10.4002V9.60024ZM18.9147 10.0112L11.9613 16.9677L12.5271 17.5333L19.4805 10.5768L18.9147 10.0112ZM11.8467 17.2062L11.6092 19.3376L12.4042 19.4262L12.6417 17.2948L11.8467 17.2062ZM11.6092 19.3373C11.5447 19.9127 11.9972 20.4006 12.5599 20.4006V19.6006C12.4663 19.6006 12.3937 19.5198 12.4042 19.4265L11.6092 19.3373ZM12.5599 20.4006C12.5793 20.4006 12.625 20.4012 12.6787 20.3935L12.566 19.6015C12.5714 19.6007 12.5753 19.6006 12.5758 19.6005C12.5758 19.6005 12.5755 19.6005 12.5749 19.6006C12.5743 19.6006 12.5733 19.6006 12.572 19.6006C12.569 19.6006 12.5657 19.6006 12.5599 19.6006V20.4006ZM12.6667 20.3951L14.798 20.1575L14.7094 19.3624L12.5781 19.6L12.6667 20.3951ZM15.0365 20.0428L21.9899 13.0894L21.4242 12.5237L14.4708 19.4771L15.0365 20.0428ZM21.9922 13.0872C22.5354 12.5352 22.537 11.647 21.991 11.0967L21.4231 11.6601C21.6584 11.8973 21.66 12.2842 21.422 12.526L21.9922 13.0872ZM21.3071 11.3784V11.3784H22.1071V11.3784H21.3071ZM14.2457 18.4063L13.0144 18.5469L13.1052 19.3418L14.3365 19.2011L14.2457 18.4063ZM13.4574 18.9886L13.5948 17.7542L12.7998 17.6657L12.6623 18.9001L13.4574 18.9886ZM13.4801 17.9928L18.3835 13.0894L17.8178 12.5238L12.9145 17.4271L13.4801 17.9928ZM17.8178 13.0894L18.9116 14.1832L19.4773 13.6175L18.3835 12.5238L17.8178 13.0894ZM18.9116 13.6175L14.0083 18.5209L14.5739 19.0866L19.4773 14.1832L18.9116 13.6175ZM20.1835 12.9113L19.0898 11.8175L18.5241 12.3832L19.6179 13.477L20.1835 12.9113ZM19.0898 12.3832L20.1898 11.2831L19.6241 10.7174L18.5241 11.8175L19.0898 12.3832ZM19.907 11.4003H19.9101V10.6003H19.907V11.4003ZM19.7318 11.3584L19.7381 11.3615L20.0946 10.6453L20.0884 10.6422L19.7318 11.3584ZM19.6323 11.285L20.7167 12.3788L21.2848 11.8156L20.2004 10.7218L19.6323 11.285ZM20.7183 11.8139L19.6183 12.9109L20.1831 13.4774L21.2832 12.3804L20.7183 11.8139ZM6.20018 14.4004C6.29988 14.4004 6.41218 14.4207 6.56661 14.4638C6.74504 14.5136 6.87604 14.5611 7.12552 14.6342C7.57818 14.767 8.16382 14.9004 9.00028 14.9004V14.1004C8.25854 14.1004 7.75039 13.9838 7.35068 13.8666C7.17397 13.8148 6.93914 13.7372 6.78171 13.6933C6.60029 13.6426 6.40673 13.6004 6.20018 13.6004V14.4004ZM9.00028 14.9004C9.83524 14.9004 10.4209 14.767 10.8738 14.6343C11.123 14.5612 11.2551 14.5135 11.4334 14.4638C11.5881 14.4207 11.7006 14.4004 11.8004 14.4004V13.6004C11.5939 13.6004 11.4001 13.6426 11.2185 13.6932C11.0605 13.7373 10.8262 13.8146 10.6488 13.8666C10.2485 13.9839 9.74039 14.1004 9.00028 14.1004V14.9004ZM11.8004 14.4004C12.3646 14.4004 12.8888 14.5719 13.3305 14.8627L13.7704 14.1945C13.2058 13.8227 12.5299 13.6004 11.8004 13.6004V14.4004ZM13.8333 14.8114L14.5458 14.0989L13.9802 13.5332L13.2676 14.2457L13.8333 14.8114ZM14.4988 13.4929C13.7415 12.9403 12.813 12.6035 11.8004 12.6035V13.4035C12.6316 13.4035 13.3969 13.6792 14.0272 14.1391L14.4988 13.4929ZM11.8004 12.6035C11.2773 12.6035 10.8779 12.7537 10.4977 12.8714C10.1167 12.9893 9.68273 13.1035 9.00028 13.1035V13.9035C9.78975 13.9035 10.3074 13.7677 10.7342 13.6356C11.1619 13.5033 11.4266 13.4035 11.8004 13.4035V12.6035ZM9.00028 13.1035C8.31788 13.1035 7.88471 12.9893 7.50413 12.8714C7.12404 12.7537 6.72481 12.6035 6.20018 12.6035V13.4035C6.57557 13.4035 6.84043 13.5033 7.26741 13.6356C7.69389 13.7677 8.21076 13.9035 9.00028 13.9035V13.1035ZM6.20071 12.6035C3.66043 12.6001 1.6 14.6609 1.6 17.2006H2.4C2.4 15.1025 4.10223 13.4007 6.19964 13.4035L6.20071 12.6035ZM1.6 17.2006V18.5006H2.4V17.2006H1.6ZM1.6 18.5006C1.6 19.5497 2.45099 20.4007 3.50006 20.4007V19.6007C2.89282 19.6007 2.4 19.1078 2.4 18.5006H1.6ZM3.50006 20.4007H11.1097V19.6007H3.50006V20.4007ZM11.4839 19.8591C11.4153 19.6779 11.3872 19.4918 11.4072 19.314L10.6122 19.2247C10.576 19.5469 10.6292 19.8609 10.7356 20.1422L11.4839 19.8591ZM11.4071 19.3156L11.4383 19.0468L10.6437 18.9544L10.6124 19.2232L11.4071 19.3156ZM11.041 18.6006H3.50006V19.4006H11.041V18.6006ZM3.50006 18.6006C3.44597 18.6006 3.40004 18.5547 3.40004 18.5006H2.60004C2.60004 18.9965 3.00414 19.4006 3.50006 19.4006V18.6006ZM3.40004 18.5006V17.2006H2.60004V18.5006H3.40004ZM3.40004 17.2006C3.40004 15.6558 4.6554 14.4004 6.20018 14.4004V13.6004C4.21357 13.6004 2.60004 15.2139 2.60004 17.2006H3.40004ZM6.60018 14.0004V14.0004H5.80018V14.0004H6.60018Z" fill="white"/>
</svg>
