<svg width="14" height="15" viewBox="0 0 14 15" fill="none" xmlns="http://www.w3.org/2000/svg">
<path fill-rule="evenodd" clip-rule="evenodd" d="M0.975076 0.386344C1.1726 0.159028 1.44035 0.0313472 1.71951 0.0313472C1.99867 0.0313472 2.26642 0.159028 2.46394 0.386344L6.98673 5.59785L11.5095 0.386344C11.606 0.267084 11.7223 0.171428 11.8515 0.105084C11.9807 0.0387391 12.1202 0.0030646 12.2617 0.000188911C12.4031 -0.00268678 12.5436 0.027295 12.6748 0.0883456C12.8059 0.149396 12.9251 0.240265 13.0251 0.355531C13.1252 0.470797 13.204 0.608099 13.257 0.759246C13.31 0.910393 13.336 1.07229 13.3335 1.23527C13.331 1.39826 13.3001 1.55899 13.2425 1.70789C13.1849 1.85679 13.1019 1.9908 12.9984 2.10193L8.4756 7.31343L12.9984 12.5249C13.1019 12.6361 13.1849 12.7701 13.2425 12.919C13.3001 13.0679 13.331 13.2286 13.3335 13.3916C13.336 13.5546 13.31 13.7165 13.257 13.8676C13.204 14.0188 13.1252 14.1561 13.0251 14.2713C12.9251 14.3866 12.8059 14.4775 12.6748 14.5385C12.5436 14.5996 12.4031 14.6296 12.2617 14.6267C12.1202 14.6238 11.9807 14.5881 11.8515 14.5218C11.7223 14.4554 11.606 14.3598 11.5095 14.2405L6.98673 9.02902L2.46394 14.2405C2.26425 14.4549 2.00012 14.5717 1.7272 14.5661C1.45429 14.5606 1.1939 14.4332 1.00089 14.2108C0.80788 13.9884 0.697322 13.6883 0.692507 13.3739C0.687692 13.0594 0.788995 12.755 0.975076 12.5249L5.49787 7.31343L0.975076 2.10193C0.7778 1.87433 0.666992 1.56581 0.666992 1.24414C0.666992 0.922464 0.7778 0.613943 0.975076 0.386344Z" fill="#E7454F"/>
</svg>
