<svg width="22" height="16" viewBox="0 0 22 16" fill="none" xmlns="http://www.w3.org/2000/svg">
<path d="M21.4706 2.847C21.3504 2.39276 21.1128 1.97812 20.7818 1.64464C20.4508 1.31116 20.0379 1.07057 19.5846 0.947C17.9206 0.5 11.2496 0.5 11.2496 0.5C11.2496 0.5 4.57859 0.5 2.91459 0.949C2.4613 1.07266 2.04847 1.31328 1.71746 1.64675C1.38645 1.98021 1.14889 2.39481 1.02859 2.849C0.721132 4.55359 0.571831 6.28294 0.582585 8.015C0.571708 9.74773 0.721009 11.4778 1.02859 13.183C1.15009 13.6331 1.38858 14.0431 1.71984 14.3712C2.0511 14.6993 2.46331 14.9338 2.91459 15.051C4.57859 15.5 11.2496 15.5 11.2496 15.5C11.2496 15.5 17.9206 15.5 19.5846 15.051C20.0359 14.9338 20.4481 14.6993 20.7793 14.3712C21.1106 14.0431 21.3491 13.6331 21.4706 13.183C21.7782 11.4778 21.9275 9.74773 21.9166 8.015C21.9275 6.28227 21.7782 4.55225 21.4706 2.847ZM9.07059 11.187V4.843L14.6466 8.015L9.07059 11.187Z" fill="white"/>
</svg>
