<svg width="24" height="24" viewBox="0 0 24 24" fill="none" xmlns="http://www.w3.org/2000/svg">
<path d="M18.8821 10.9102L18.8837 10.9102C19.6927 10.9062 20.4748 11.0798 21.2477 11.3938C21.1269 15.4152 16.7247 18.1524 13.0914 16.4925C13.2155 13.3826 15.7706 10.9188 18.8821 10.9102Z" stroke="#656565" stroke-width="1.5"/>
<path d="M4.61605 18.8508C4.06392 17.4244 3.52109 16.0126 2.96866 14.5729C4.38851 14.0268 5.79777 13.4839 7.24569 12.9253C7.79229 14.35 8.3377 15.7673 8.89364 17.2075C7.46173 17.7591 6.05478 18.299 4.61605 18.8508Z" stroke="#656565" stroke-width="1.5"/>
<path d="M10.1529 5.75002V5.75003H10.1559C11.5075 5.75003 12.5878 6.83194 12.5878 8.18183C12.5878 9.52253 11.4956 10.6136 10.1489 10.6136C8.80812 10.6136 7.72491 9.52871 7.72412 8.17625C7.73029 6.81548 8.80642 5.74464 10.1529 5.75002Z" stroke="#656565" stroke-width="1.5"/>
</svg>
