<svg width="18" height="15" viewBox="0 0 18 15" fill="none" xmlns="http://www.w3.org/2000/svg">
<path d="M11.1705 13.4995V13.4465H7.87763V13.4995L7.87821 13.5257C7.87821 13.8193 7.76307 14.1009 7.55812 14.3085C7.35318 14.5162 7.07521 14.6328 6.78537 14.6328C6.49554 14.6328 6.21757 14.5162 6.01262 14.3085C5.80768 14.1009 5.69254 13.8193 5.69254 13.5257L5.69311 13.4983V13.4465H5.31772C5.15768 13.4465 5.00244 13.391 4.87779 13.2893C4.75315 13.1876 4.66658 13.0458 4.63247 12.8874L4.6319 12.8827L2.43761 2.35717L0.562946 2.04094C0.384403 2.0044 0.226872 1.89898 0.123634 1.74695C0.020395 1.59492 -0.0204652 1.40819 0.00968559 1.22621C0.0398363 1.04422 0.138637 0.881238 0.285213 0.771687C0.431789 0.662137 0.614662 0.6146 0.795195 0.639121L0.791746 0.638539L3.1378 1.03456C3.42352 1.08407 3.64772 1.30305 3.7075 1.58376L3.70808 1.58842L4.10589 3.48934L10.9498 4.06707C10.9075 4.29484 10.8859 4.52604 10.8854 4.75779V4.76012C10.8854 4.99424 10.9055 5.2237 10.9446 5.44676L10.9411 5.42346C10.7528 5.4836 10.5929 5.61193 10.4921 5.78393C10.3912 5.95593 10.3565 6.15955 10.3944 6.35587L10.3939 6.35063L10.8072 9.37324C10.8325 9.56718 10.9199 9.73723 11.0475 9.86536C11.1636 9.98242 11.3228 10.0558 11.4993 10.0575H11.4999C11.539 10.0575 11.5775 10.0535 11.6143 10.0465L11.6103 10.0471C11.8063 9.99517 11.9755 9.86973 12.0836 9.69617C12.1918 9.52261 12.2307 9.31391 12.1926 9.11233L12.1932 9.11757L11.9679 7.47406C12.3255 7.85106 12.7548 8.15086 13.2298 8.35544C13.7048 8.56001 14.2157 8.66513 14.7318 8.66447C14.7566 8.66447 14.7813 8.66447 14.8054 8.66098L14.8589 8.65806L14.4743 10.9306C14.4651 10.9856 14.437 11.0357 14.3949 11.0718C14.3528 11.1079 14.2995 11.1278 14.2444 11.128H5.69886L5.88685 12.0289H14.0253C14.2064 12.0362 14.3777 12.1142 14.5034 12.2465C14.629 12.3788 14.6993 12.5553 14.6994 12.7389C14.6996 12.9225 14.6296 13.0991 14.5042 13.2316C14.3787 13.3641 14.2076 13.4424 14.0265 13.45H13.3562V13.503C13.3562 13.7966 13.241 14.0782 13.0361 14.2858C12.8311 14.4935 12.5532 14.6101 12.2633 14.6101C11.9735 14.6101 11.6955 14.4935 11.4906 14.2858C11.2856 14.0782 11.1705 13.7966 11.1705 13.503V13.4995ZM11.9512 13.4995C11.9513 13.5429 11.9603 13.5859 11.9777 13.6257C11.9951 13.6654 12.0204 13.7011 12.0521 13.7304C12.0837 13.7597 12.1211 13.782 12.1617 13.796C12.2024 13.8099 12.2454 13.8151 12.2882 13.8113C12.3309 13.8075 12.3724 13.7948 12.41 13.7739C12.4476 13.753 12.4806 13.7244 12.5067 13.6899C12.5329 13.6555 12.5517 13.6159 12.5619 13.5737C12.5722 13.5315 12.5737 13.4876 12.5663 13.4447V13.4465H11.9569C11.9539 13.464 11.9523 13.4817 11.9523 13.4995H11.9512ZM6.47379 13.4995C6.47391 13.5429 6.48294 13.5859 6.5003 13.6257C6.51767 13.6654 6.54299 13.7011 6.57467 13.7304C6.60635 13.7597 6.64369 13.782 6.68433 13.796C6.72497 13.8099 6.76802 13.8151 6.81076 13.8113C6.8535 13.8075 6.895 13.7948 6.93262 13.7739C6.97024 13.753 7.00317 13.7244 7.02931 13.6899C7.05546 13.6555 7.07426 13.6159 7.08452 13.5737C7.09478 13.5315 7.09627 13.4876 7.08891 13.4447V13.4465H6.47897C6.47608 13.4636 6.47474 13.4809 6.47494 13.4983V13.4995H6.47379ZM8.69683 5.4188C8.50075 5.47058 8.33146 5.59599 8.22331 5.76958C8.11516 5.94317 8.07625 6.15195 8.11448 6.35354L8.11391 6.3483L8.52724 9.37091C8.55253 9.56485 8.63991 9.7349 8.76754 9.86303C8.88366 9.98009 9.0429 10.0535 9.21939 10.0552H9.21996C9.25905 10.0552 9.29757 10.0511 9.33436 10.0442L9.33034 10.0447C9.52634 9.99284 9.69555 9.8674 9.80368 9.69384C9.91181 9.52029 9.95077 9.31158 9.91268 9.11L9.91326 9.11524L9.49993 6.09263C9.47608 5.90608 9.39153 5.73291 9.25963 5.60051C9.13958 5.47903 8.97744 5.40986 8.80778 5.40774H8.8072C8.76754 5.40774 8.72902 5.41182 8.69165 5.41939L8.69568 5.4188H8.69683ZM6.41688 5.4188C6.22015 5.47034 6.05026 5.59602 5.94192 5.77018C5.83358 5.94434 5.79496 6.15384 5.83396 6.35587L5.83338 6.35063L6.24672 9.37324C6.27201 9.56718 6.35939 9.73723 6.48701 9.86536C6.60314 9.98242 6.76238 10.0558 6.93886 10.0575H6.93944C6.97853 10.0575 7.01705 10.0535 7.05384 10.0465L7.04982 10.0471C7.246 9.99541 7.41543 9.87006 7.52369 9.69645C7.63196 9.52284 7.67094 9.314 7.63274 9.11233L7.63331 9.11757L7.2194 6.09321C7.19556 5.90666 7.111 5.73349 6.97911 5.60109C6.8592 5.47941 6.69697 5.4102 6.52726 5.40832H6.52668C6.48759 5.40832 6.44965 5.4124 6.41286 5.41939L6.41688 5.4188ZM11.4694 4.76187C11.4696 3.88454 11.8138 3.0432 12.4262 2.42294C12.7295 2.11582 13.0895 1.87222 13.4857 1.70605C13.8819 1.53988 14.3065 1.45439 14.7353 1.45447C15.1641 1.45454 15.5887 1.54018 15.9848 1.7065C16.381 1.87281 16.7409 2.11654 17.044 2.42377C17.3472 2.73099 17.5876 3.09571 17.7517 3.49708C17.9157 3.89845 18.0001 4.32862 18 4.76303C17.9998 5.64052 17.6555 6.48197 17.0428 7.10228C16.4302 7.7226 15.5994 8.07095 14.7333 8.07072C13.8671 8.07049 13.0365 7.72169 12.4242 7.10105C11.8119 6.48041 11.4681 5.63877 11.4683 4.76128L11.4694 4.76187ZM12.4048 4.76187C12.4048 5.07184 12.465 5.37878 12.5821 5.66516C12.6992 5.95155 12.8708 6.21176 13.0872 6.43094C13.3035 6.65013 13.5604 6.824 13.8431 6.94262C14.1258 7.06124 14.4287 7.1223 14.7347 7.1223C15.0407 7.1223 15.3437 7.06124 15.6264 6.94262C15.909 6.824 16.1659 6.65013 16.3823 6.43094C16.5986 6.21176 16.7702 5.95155 16.8873 5.66516C17.0044 5.37878 17.0647 5.07184 17.0647 4.76187C17.0648 4.13569 16.8193 3.53512 16.3823 3.09229C15.9453 2.64946 15.3525 2.40064 14.7344 2.40056C14.1163 2.40049 13.5235 2.64916 13.0864 3.09188C12.6493 3.5346 12.4037 4.1351 12.4036 4.76128L12.4048 4.76187ZM14.2673 5.70592V5.23535H13.8029C13.6787 5.23535 13.5597 5.1854 13.472 5.0965C13.3842 5.0076 13.3349 4.88701 13.3349 4.76128C13.3349 4.63555 13.3842 4.51497 13.472 4.42607C13.5597 4.33716 13.6787 4.28722 13.8029 4.28722H14.2673V3.81665C14.2673 3.69092 14.3166 3.57034 14.4044 3.48143C14.4922 3.39253 14.6112 3.34258 14.7353 3.34258C14.8594 3.34258 14.9784 3.39253 15.0662 3.48143C15.1539 3.57034 15.2032 3.69092 15.2032 3.81665V4.28722H15.6677C15.7918 4.28722 15.9109 4.33716 15.9986 4.42607C16.0864 4.51497 16.1357 4.63555 16.1357 4.76128C16.1357 4.88701 16.0864 5.0076 15.9986 5.0965C15.9109 5.1854 15.7918 5.23535 15.6677 5.23535H15.2032V5.70534C15.2032 5.83107 15.1539 5.95165 15.0662 6.04056C14.9784 6.12946 14.8594 6.17941 14.7353 6.17941C14.6112 6.17941 14.4922 6.12946 14.4044 6.04056C14.3166 5.95165 14.2673 5.83107 14.2673 5.70534V5.70592Z" fill="white"/>
</svg>
